<?xml version="1.0" encoding="UTF-8" standalone="no"?>
<svg xmlns="http://www.w3.org/2000/svg">
    <symbol id="Facebook" width="48" height="48">
        <path d="M28.5 9H36V0h-7.5C22.71 0 18 4.71 18 10.5V15h-6v9h6v24h9V24h7.5l1.5-9h-9v-4.5c0-.813.687-1.5 1.5-1.5z"/>
    </symbol>
    <symbol id ="Instagram" xmlns="http://www.w3.org/2000/svg" width="48" height="48">
        <path d="M24 4.322c6.412 0 7.172.028 9.694.141 2.344.103 3.609.497 4.453.825 1.116.431 1.922.956 2.756 1.791.844.844 1.359 1.641 1.8 2.756.328.844.722 2.119.825 4.453.112 2.531.141 3.291.141 9.694s-.028 7.172-.141 9.694c-.103 2.344-.497 3.609-.825 4.453-.431 1.116-.956 1.922-1.791 2.756-.844.844-1.641 1.359-2.756 1.8-.844.328-2.119.722-4.453.825-2.531.112-3.291.141-9.694.141s-7.172-.028-9.694-.141c-2.344-.103-3.609-.497-4.453-.825-1.116-.431-1.922-.956-2.756-1.791-.844-.844-1.359-1.641-1.8-2.756-.328-.844-.722-2.119-.825-4.453-.113-2.531-.141-3.291-.141-9.694s.028-7.172.141-9.694c.103-2.344.497-3.609.825-4.453.431-1.116.956-1.922 1.791-2.756.844-.844 1.641-1.359 2.756-1.8.844-.328 2.119-.722 4.453-.825 2.522-.112 3.281-.141 9.694-.141zM24 0c-6.516 0-7.331.028-9.891.141-2.55.113-4.303.525-5.822 1.116-1.584.619-2.925 1.434-4.256 2.775C2.69 5.363 1.875 6.704 1.256 8.279.665 9.807.253 11.551.14 14.101c-.112 2.569-.141 3.384-.141 9.9s.028 7.331.141 9.891c.112 2.55.525 4.303 1.116 5.822.619 1.584 1.434 2.925 2.775 4.256a11.742 11.742 0 0 0 4.247 2.766c1.528.591 3.272 1.003 5.822 1.116 2.559.113 3.375.141 9.891.141s7.331-.028 9.891-.141c2.55-.112 4.303-.525 5.822-1.116 1.575-.609 2.916-1.434 4.247-2.766s2.156-2.672 2.766-4.247c.591-1.528 1.003-3.272 1.116-5.822.112-2.559.141-3.375.141-9.891s-.028-7.331-.141-9.891c-.112-2.55-.525-4.303-1.116-5.822-.591-1.594-1.406-2.934-2.747-4.266a11.742 11.742 0 0 0-4.247-2.766C38.195.674 36.451.262 33.901.149c-2.569-.122-3.384-.15-9.9-.15z"/><path d="M24 11.672c-6.806 0-12.328 5.522-12.328 12.328S17.194 36.328 24 36.328 36.328 30.806 36.328 24c0-6.806-5.522-12.328-12.328-12.328zm0 20.325a7.998 7.998 0 1 1 .002-15.996A7.998 7.998 0 0 1 24 31.997zM39.694 11.184a2.878 2.878 0 1 1-5.756 0 2.878 2.878 0 0 1 5.756 0z"/>
    <symbol id ="LinkedIn" xmlns="http://www.w3.org/2000/svg" width="48" height="48">
        <path d="M18 18h8.302v4.255h.119C27.576 20.183 30.403 18 34.617 18c8.763 0 10.384 5.455 10.384 12.55V45h-8.654V32.19c0-3.056-.063-6.986-4.501-6.986-4.507 0-5.195 3.327-5.195 6.764V45h-8.65V18zM3 18h9v27H3V18zM12 10.5a4.5 4.5 0 1 1-9 0 4.5 4.5 0 0 1 9 0z"/>
    <symbol id ="Twitter" xmlns="http://www.w3.org/2000/svg" width="48" height="48">
        <path d="M48 10.613a19.434 19.434 0 0 1-5.653 1.547 9.903 9.903 0 0 0 4.331-5.447 19.808 19.808 0 0 1-6.253 2.391 9.85 9.85 0 0 0-7.191-3.103 9.842 9.842 0 0 0-9.844 9.844c0 .769.084 1.519.253 2.241-8.184-.413-15.441-4.331-20.297-10.294a9.843 9.843 0 0 0-1.331 4.95 9.833 9.833 0 0 0 4.378 8.194 9.866 9.866 0 0 1-4.463-1.228v.122a9.848 9.848 0 0 0 7.903 9.656 9.865 9.865 0 0 1-2.597.347c-.637 0-1.247-.066-1.856-.178 1.256 3.909 4.894 6.759 9.197 6.844a19.748 19.748 0 0 1-12.234 4.219 19.52 19.52 0 0 1-2.353-.141 27.857 27.857 0 0 0 15.103 4.425c18.113 0 28.022-15.009 28.022-28.022 0-.431-.009-.853-.028-1.275a19.806 19.806 0 0 0 4.912-5.091z"/>
</svg>